{
.appVersion = "3223";
.formatVersion = 3;
DisplayStrings = (
"THE QUICK BROWN
FOX JUMPS OVER THE
LAZY DOG

the quick brown fox
jumps over the lazy
dog ",

glyphs = (
{
glyphname = A;
lastChange = "2023-11-02 10:20:13 +0000";
layers = (
{
layerId = m01;
shapes = (
{
closed = 1;
nodes = (
(62,33,o),
(147,98,o),
(152,125,cs),
(184,299,o),
(212,545,o),
(228,631,cs),
(234,661,o),
(145,577,o),
(140,549,cs),
(124,469,o),
(98,229,o),
(68,63,cs)
);
},
{
closed = 1;
nodes = (
(29,143,o),
(-27,-27,o),
(4,2,cs),
(23,20,o),
(57,29,o),
(88,27,cs),
(113,26,o),
(136,18,o),
(149,0,cs),
(164,-19,o),
(226,150,o),
(213,168,cs),
(197,189,o),
(167,199,o),
(136,198,cs),
(107,197,o),
(76,186,o),
(54,166,cs)
);
},
{
closed = 1;
nodes = (
(57,406,o),
(0,236,o),
(10,236,cs),
(42,236,o),
(75,236,o),
(108,236,c),
(110,235,o),
(118,237,o),
(122,235,c),
(179,235,o),
(235,234,o),
(291,234,c),
(299,238,o),
(308,235,o),
(316,237,c),
(351,237,o),
(387,237,o),
(423,237,cs),
(435,237,o),
(495,407,o),
(483,407,cs),
(448,407,o),
(413,407,o),
(376,407,c),
(376,407,o),
(347,390,o),
(347,390,c),
(293,389,o),
(239,387,o),
(186,387,c),
(186,387,o),
(168,406,o),
(168,406,c),
(136,406,o),
(103,406,o),
(70,406,cs)
);
},
{
closed = 1;
nodes = (
(335,731,o),
(192,629,o),
(203,609,cs),
(219,578,o),
(258,215,o),
(284,60,cs),
(293,4,o),
(330,-9,o),
(368,3,cs),
(403,14,o),
(523,143,o),
(484,131,cs),
(450,121,o),
(421,132,o),
(412,184,cs),
(389,329,o),
(359,686,o),
(345,711,cs)
);
}
);
width = 522;
}
);
unicode = 65;
},
{
glyphname = B;
lastChange = "2023-11-02 06:24:32 +0000";
layers = (
{
layerId = m01;
shapes = (
{
closed = 1;
nodes = (
(335,-3,o),
(458,143,o),
(435,147,cs),
(215,188,o),
(125,195,o),
(86,168,cs),
(63,152,o),
(4,-19,o),
(32,0,cs),
(39,5,o),
(117,38,o),
(315,1,cs)
);
},
{
closed = 1;
nodes = (
(210,627,o),
(130,576,o),
(123,535,cs),
(105,432,o),
(78,125,o),
(77,113,cs),
(73,75,o),
(150,128,o),
(153,165,cs),
(153,165,o),
(187,495,o),
(203,585,cs)
);
},
{
closed = 1;
nodes = (
(231,256,o),
(294,244,o),
(360,326,cs),
(449,436,o),
(479,518,o),
(472,579,cs),
(465,645,o),
(415,684,o),
(352,702,cs),
(295,719,o),
(228,718,o),
(174,705,cs),
(151,700,o),
(59,544,o),
(86,551,cs),
(165,570,o),
(232,567,o),
(278,547,cs),
(310,534,o),
(333,512,o),
(342,485,cs),
(356,446,o),
(344,395,o),
(298,338,cs)
);
},
{
closed = 1;
nodes = (
(152,500,o),
(90,331,o),
(108,323,cs),
(293,251,o),
(362,217,o),
(377,187,cs),
(387,168,o),
(373,150,o),
(353,125,cs),
(277,30,o),
(333,2,o),
(411,99,cs),
(494,204,o),
(518,271,o),
(502,320,cs),
(475,402,o),
(331,429,o),
(170,493,cs)
);
}
);
width = 547;
}
);
unicode = 66;
},
{
glyphname = C;
lastChange = "2023-11-02 06:45:58 +0000";
layers = (
{
layerId = m01;
shapes = (
{
closed = 1;
nodes = (
(424,662,o),
(294,596,o),
(243,543,cs),
(90,384,o),
(33,259,o),
(30,168,cs),
(27,66,o),
(92,6,o),
(169,-10,cs),
(229,-22,o),
(296,-7,o),
(342,35,cs),
(375,65,o),
(452,248,o),
(414,213,cs),
(369,171,o),
(307,153,o),
(256,162,cs),
(215,169,o),
(182,194,o),
(172,237,cs),
(156,308,o),
(200,429,o),
(371,607,cs)
);
},
{
closed = 1;
nodes = (
(377,467,o),
(488,610,o),
(461,609,cs),
(399,606,o),
(295,679,o),
(284,713,cs),
(277,738,o),
(164,598,o),
(172,575,cs),
(187,527,o),
(287,462,o),
(355,465,cs)
);
}
);
width = 495;
}
);
unicode = 67;
},
{
glyphname = D;
lastChange = "2023-11-02 07:02:20 +0000";
layers = (
{
layerId = m01;
shapes = (
{
closed = 1;
nodes = (
(101,735,o),
(38,567,o),
(56,557,cs),
(263,438,o),
(352,326,o),
(377,241,cs),
(392,191,o),
(384,150,o),
(365,126,cs),
(315,59,o),
(347,32,o),
(398,100,cs),
(458,179,o),
(480,256,o),
(471,331,cs),
(454,474,o),
(322,609,o),
(118,725,cs)
);
},
{
closed = 1;
nodes = (
(29,51,o),
(108,40,o),
(115,92,cs),
(140,306,o),
(192,612,o),
(174,638,cs),
(146,680,o),
(78,638,o),
(108,594,cs),
(108,593,o),
(66,361,o),
(35,102,cs)
);
},
{
closed = 1;
nodes = (
(329,-4,o),
(448,146,o),
(408,150,cs),
(184,174,o),
(116,203,o),
(70,167,cs),
(46,148,o),
(-11,-22,o),
(18,1,cs),
(30,11,o),
(90,22,o),
(296,0,cs)
);
}
);
width = 513;
}
);
unicode = 68;
},
{
glyphname = E;
lastChange = "2023-11-02 06:24:32 +0000";
layers = (
{
layerId = m01;
shapes = (
{
closed = 1;
nodes = (
(180,659,o),
(105,606,o),
(102,580,cs),
(83,393,o),
(62,203,o),
(44,29,cs),
(39,-15,o),
(60,0,o),
(68,6,cs),
(95,30,o),
(126,35,o),
(175,19,cs),
(243,-2,o),
(334,-18,o),
(384,25,cs),
(407,44,o),
(453,218,o),
(426,195,cs),
(390,166,o),
(299,169,o),
(237,189,cs),
(186,205,o),
(159,206,o),
(104,160,c),
(112,152,o),
(120,144,o),
(128,137,c),
(146,311,o),
(161,469,o),
(178,630,cs)
);
},
{
closed = 1;
nodes = (
(73,438,o),
(13,268,o),
(34,268,cs),
(142,269,o),
(250,269,o),
(357,269,cs),
(377,269,o),
(439,439,o),
(417,439,cs),
(309,438,o),
(201,438,o),
(94,438,cs)
);
},
{
closed = 1;
nodes = (
(445,549,o),
(492,723,o),
(465,703,cs),
(438,683,o),
(351,697,o),
(266,703,cs),
(200,707,o),
(135,707,o),
(103,681,cs),
(80,662,o),
(36,491,o),
(61,511,cs),
(96,539,o),
(184,531,o),
(265,524,cs),
(333,518,o),
(397,514,o),
(423,533,cs)
);
}
);
width = 483;
}
);
unicode = 69;
},
{
glyphname = F;
lastChange = "2023-11-02 07:02:36 +0000";
layers = (
{
layerId = m01;
shapes = (
{
closed = 1;
nodes = (
(205,749,o),
(120,633,o),
(112,554,cs),
(95,383,o),
(81,239,o),
(65,82,cs),
(63,57,o),
(141,99,o),
(143,122,cs),
(161,303,o),
(180,496,o),
(196,662,cs)
);
},
{
closed = 1;
nodes = (
(455,561,o),
(498,733,o),
(469,705,cs),
(434,672,o),
(180,715,o),
(129,690,cs),
(106,678,o),
(52,508,o),
(77,520,cs),
(124,545,o),
(382,492,o),
(429,537,cs)
);
},
{
closed = 1;
nodes = (
(382,285,o),
(430,459,o),
(404,444,cs),
(368,424,o),
(145,457,o),
(101,431,cs),
(78,418,o),
(33,245,o),
(57,259,cs),
(95,281,o),
(318,248,o),
(360,272,cs)
);
},
{
closed = 1;
nodes = (
(39,143,o),
(-17,-27,o),
(14,2,cs),
(33,20,o),
(68,30,o),
(100,27,cs),
(124,26,o),
(146,17,o),
(159,0,cs),
(174,-19,o),
(236,150,o),
(223,168,cs),
(204,192,o),
(169,201,o),
(134,197,cs),
(108,194,o),
(83,183,o),
(64,166,cs)
);
}
);
width = 449;
}
);
unicode = 70;
},
{
glyphname = G;
lastChange = "2023-11-02 06:24:32 +0000";
layers = (
{
layerId = m01;
shapes = (
{
closed = 1;
nodes = (
(440,660,o),
(347,642,o),
(298,599,cs),
(-6,331,o),
(-36,101,o),
(90,9,cs),
(164,-45,o),
(287,-25,o),
(428,239,cs),
(480,337,o),
(419,291,o),
(368,197,cs),
(366,193,o),
(297,79,o),
(216,137,cs),
(100,222,o),
(134,390,o),
(390,615,cs)
);
},
{
closed = 1;
nodes = (
(265,351,o),
(177,219,o),
(238,267,cs),
(251,278,o),
(287,284,o),
(310,264,cs),
(323,252,o),
(332,232,o),
(330,200,cs),
(327,135,o),
(318,72,o),
(311,6,cs),
(305,-61,o),
(320,-80,o),
(349,-100,cs),
(365,-111,o),
(492,16,o),
(475,28,cs),
(452,44,o),
(447,53,o),
(453,114,cs),
(459,178,o),
(468,244,o),
(472,308,cs),
(474,354,o),
(446,394,o),
(408,408,cs),
(380,419,o),
(346,416,o),
(314,391,cs)
);
},
{
closed = 1;
nodes = (
(415,593,o),
(468,761,o),
(436,727,cs),
(423,714,o),
(382,705,o),
(340,706,cs),
(305,707,o),
(270,715,o),
(252,732,cs),
(236,747,o),
(172,579,o),
(188,564,cs),
(208,545,o),
(247,536,o),
(285,536,cs),
(327,536,o),
(369,545,o),
(388,565,cs)
);
}
);
width = 512;
}
);
unicode = 71;
},
{
glyphname = H;
lastChange = "2023-11-02 06:24:32 +0000";
layers = (
{
layerId = m01;
shapes = (
{
closed = 1;
nodes = (
(89,438,o),
(28,268,o),
(49,268,cs),
(193,269,o),
(338,269,o),
(482,269,cs),
(501,269,o),
(563,439,o),
(542,439,cs),
(398,438,o),
(253,438,o),
(109,438,cs)
);
},
{
closed = 1;
nodes = (
(173,702,o),
(43,571,o),
(82,580,cs),
(91,583,o),
(102,564,o),
(97,488,cs),
(87,361,o),
(77,234,o),
(68,106,cs),
(62,39,o),
(86,-6,o),
(109,-2,cs),
(139,3,o),
(266,136,o),
(231,130,cs),
(196,124,o),
(208,155,o),
(212,218,cs),
(222,345,o),
(232,472,o),
(241,600,cs),
(246,660,o),
(235,717,o),
(204,710,cs)
);
},
{
closed = 1;
nodes = (
(442,702,o),
(312,571,o),
(351,580,cs),
(360,583,o),
(371,564,o),
(366,488,cs),
(356,361,o),
(346,234,o),
(337,106,cs),
(331,39,o),
(355,-6,o),
(378,-2,cs),
(408,3,o),
(535,136,o),
(500,130,cs),
(465,124,o),
(477,155,o),
(481,218,cs),
(491,345,o),
(501,472,o),
(510,600,cs),
(515,660,o),
(504,717,o),
(473,710,cs)
);
}
);
width = 591;
}
);
unicode = 72;
},
{
glyphname = I;
lastChange = "2023-11-02 06:24:32 +0000";
layers = (
{
layerId = m01;
shapes = (
{
closed = 1;
nodes = (
(151,700,o),
(21,569,o),
(60,578,cs),
(69,581,o),
(80,565,o),
(75,488,cs),
(65,361,o),
(55,234,o),
(46,106,cs),
(40,39,o),
(64,-6,o),
(87,-2,cs),
(117,3,o),
(244,136,o),
(209,130,cs),
(174,124,o),
(186,155,o),
(190,218,cs),
(200,345,o),
(210,472,o),
(219,600,cs),
(224,661,o),
(213,715,o),
(182,708,cs)
);
}
);
width = 265;
}
);
unicode = 73;
},
{
glyphname = J;
lastChange = "2023-11-02 06:41:54 +0000";
layers = (
{
layerId = m01;
shapes = (
{
closed = 1;
nodes = (
(99,-20,o),
(211,121,o),
(207,144,cs),
(197,189,o),
(120,248,o),
(82,251,cs),
(61,252,o),
(-51,109,o),
(-26,107,cs),
(0,106,o),
(85,45,o),
(93,6,cs)
);
},
{
closed = 1;
nodes = (
(317,702,o),
(187,571,o),
(226,580,cs),
(235,583,o),
(248,563,o),
(241,488,cs),
(231,399,o),
(221,309,o),
(212,219,cs),
(198,96,o),
(196,120,o),
(194,119,cs),
(123,64,o),
(51,-40,o),
(130,21,cs),
(351,193,o),
(351,281,o),
(356,331,cs),
(366,420,o),
(376,510,o),
(385,600,cs),
(392,661,o),
(379,717,o),
(348,710,cs)
);
}
);
width = 417;
}
);
unicode = 74;
},
{
glyphname = K;
lastChange = "2023-11-02 07:02:57 +0000";
layers = (
{
layerId = m01;
shapes = (
{
closed = 1;
nodes = (
(298,484,o),
(178,349,o),
(196,339,cs),
(206,333,o),
(236,242,o),
(274,156,cs),
(311,72,o),
(356,-8,o),
(399,1,cs),
(426,6,o),
(542,144,o),
(509,137,cs),
(479,132,o),
(442,193,o),
(408,265,cs),
(365,358,o),
(327,468,o),
(314,475,cs)
);
},
{
closed = 1;
nodes = (
(172,721,o),
(41,591,o),
(57,578,cs),
(62,575,o),
(80,551,o),
(76,496,cs),
(66,370,o),
(56,244,o),
(47,118,cs),
(42,54,o),
(42,0,o),
(87,0,cs),
(113,0,o),
(244,152,o),
(211,152,cs),
(188,152,o),
(187,165,o),
(191,230,cs),
(201,356,o),
(211,482,o),
(220,608,cs),
(226,677,o),
(198,701,o),
(187,710,cs)
);
},
{
closed = 1;
nodes = (
(512,572,o),
(566,740,o),
(535,711,cs),
(515,693,o),
(479,683,o),
(447,686,cs),
(424,688,o),
(403,696,o),
(390,713,cs),
(376,731,o),
(311,564,o),
(326,545,cs),
(342,525,o),
(369,515,o),
(398,515,cs),
(429,515,o),
(462,526,o),
(485,547,cs)
);
},
{
closed = 1;
nodes = (
(503,608,o),
(409,615,o),
(392,596,cs),
(377,579,o),
(83,251,o),
(83,251,cs),
(65,231,o),
(161,225,o),
(177,243,cs),
(185,251,o),
(463,563,o),
(486,588,cs)
);
}
);
width = 584;
}
);
unicode = 75;
},
{
glyphname = L;
lastChange = "2023-11-02 06:34:40 +0000";
layers = (
{
layerId = m01;
shapes = (
{
closed = 1;
nodes = (
(48,92,o),
(-3,-43,o),
(43,11,cs),
(70,43,o),
(122,60,o),
(169,37,cs),
(210,16,o),
(273,-19,o),
(325,18,cs),
(350,36,o),
(407,206,o),
(377,184,cs),
(337,155,o),
(304,170,o),
(263,189,cs),
(208,217,o),
(150,210,o),
(87,137,cs)
);
},
{
closed = 1;
nodes = (
(172,726,o),
(42,603,o),
(52,584,cs),
(69,553,o),
(70,548,o),
(65,490,cs),
(52,334,o),
(41,177,o),
(27,21,cs),
(24,-16,o),
(164,122,o),
(167,155,cs),
(179,303,o),
(194,450,o),
(207,598,cs),
(212,662,o),
(201,673,o),
(182,708,cs)
);
}
);
width = 401;
}
);
unicode = 76;
},
{
glyphname = M;
lastChange = "2023-11-02 06:31:26 +0000";
layers = (
{
layerId = m01;
shapes = (
{
closed = 1;
nodes = (
(266,723,o),
(145,604,o),
(156,586,cs),
(226,475,o),
(257,52,o),
(312,1,cs),
(326,-12,o),
(447,108,o),
(432,121,cs),
(381,168,o),
(348,591,o),
(276,706,cs)
);
},
{
closed = 1;
nodes = (
(40,67,o),
(128,109,o),
(136,134,cs),
(215,367,o),
(219,646,o),
(219,648,cs),
(221,672,o),
(148,607,o),
(147,584,cs),
(146,574,o),
(130,333,o),
(50,96,cs)
);
},
{
closed = 1;
nodes = (
(306,130,o),
(399,161,o),
(408,184,cs),
(496,405,o),
(546,613,o),
(549,634,cs),
(553,665,o),
(473,613,o),
(469,582,cs),
(468,573,o),
(400,369,o),
(316,156,cs)
);
},
{
closed = 1;
nodes = (
(603,733,o),
(474,609,o),
(474,581,cs),
(476,522,o),
(477,370,o),
(487,235,cs),
(496,111,o),
(514,3,o),
(549,1,cs),
(573,0,o),
(692,121,o),
(665,123,cs),
(639,125,o),
(625,197,o),
(617,292,cs),
(604,436,o),
(606,630,o),
(604,703,cs)
);
},
{
closed = 1;
nodes = (
(14,143,o),
(-42,-27,o),
(-11,2,cs),
(8,20,o),
(43,29,o),
(76,27,cs),
(102,26,o),
(125,17,o),
(138,0,cs),
(153,-19,o),
(215,150,o),
(202,168,cs),
(187,188,o),
(157,198,o),
(126,198,cs),
(94,197,o),
(61,187,o),
(39,166,cs)
);
}
);
width = 694;
}
);
unicode = 77;
},
{
glyphname = N;
lastChange = "2023-11-02 06:24:32 +0000";
layers = (
{
layerId = m01;
shapes = (
{
closed = 1;
nodes = (
(200,726,o),
(79,607,o),
(89,589,cs),
(180,426,o),
(280,129,o),
(383,2,cs),
(395,-13,o),
(516,107,o),
(503,122,cs),
(402,247,o),
(302,544,o),
(211,707,cs)
);
},
{
closed = 1;
nodes = (
(55,95,o),
(133,101,o),
(141,121,cs),
(161,172,o),
(180,590,o),
(180,593,cs),
(181,618,o),
(112,580,o),
(110,559,cs),
(109,545,o),
(82,166,o),
(63,117,cs)
);
},
{
closed = 1;
nodes = (
(14,145,o),
(-42,-25,o),
(-11,4,cs),
(7,21,o),
(39,30,o),
(70,30,cs),
(95,29,o),
(120,20,o),
(134,2,cs),
(149,-17,o),
(211,152,o),
(198,170,cs),
(181,191,o),
(151,201,o),
(120,200,cs),
(91,198,o),
(60,188,o),
(39,168,cs)
);
},
{
closed = 1;
nodes = (
(555,570,o),
(609,738,o),
(578,709,cs),
(559,691,o),
(524,682,o),
(492,684,cs),
(468,685,o),
(446,694,o),
(433,711,cs),
(419,729,o),
(354,562,o),
(369,543,cs),
(387,520,o),
(422,510,o),
(456,514,cs),
(483,517,o),
(509,527,o),
(528,545,cs)
);
},
{
closed = 1;
nodes = (
(376,78,o),
(457,104,o),
(466,127,cs),
(492,193,o),
(504,570,o),
(506,592,cs),
(507,616,o),
(436,582,o),
(434,560,cs),
(434,560,o),
(401,144,o),
(386,103,cs)
);
}
);
width = 567;
}
);
unicode = 78;
},
{
glyphname = O;
lastChange = "2023-11-02 06:33:28 +0000";
layers = (
{
background = {
shapes = (
{
closed = 1;
nodes = (
);
}
);
};
layerId = m01;
shapes = (
{
closed = 1;
nodes = (
(155,8,o),
(161,-51,o),
(254,24,cs),
(346,98,o),
(453,221,o),
(449,386,cs),
(447,482,o),
(408,592,o),
(308,715,cs),
(294,732,o),
(207,567,o),
(222,549,cs),
(295,459,o),
(331,383,o),
(344,321,cs),
(379,154,o),
(249,83,o),
(242,78,cs)
);
},
{
closed = 1;
nodes = (
(321,679,o),
(334,765,o),
(263,671,cs),
(207,596,o),
(18,321,o),
(31,141,cs),
(37,66,o),
(78,7,o),
(178,-14,cs),
(214,-21,o),
(346,101,o),
(304,110,cs),
(214,128,o),
(176,182,o),
(166,248,cs),
(144,392,o),
(256,592,o),
(257,593,cs)
);
}
);
width = 479;
}
);
unicode = 79;
},
{
glyphname = P;
lastChange = "2023-11-02 06:57:08 +0000";
layers = (
{
layerId = m01;
shapes = (
{
closed = 1;
nodes = (
(224,230,o),
(291,224,o),
(356,308,cs),
(480,468,o),
(485,572,o),
(438,634,cs),
(383,704,o),
(259,718,o),
(167,695,cs),
(144,690,o),
(52,534,o),
(79,541,cs),
(200,570,o),
(287,549,o),
(323,498,cs),
(354,454,o),
(346,388,o),
(288,312,cs)
);
},
{
closed = 1;
nodes = (
(289,216,o),
(406,366,o),
(357,371,cs),
(205,388,o),
(140,407,o),
(108,394,cs),
(86,386,o),
(27,216,o),
(50,226,cs),
(58,229,o),
(109,236,o),
(247,221,cs)
);
},
{
closed = 1;
nodes = (
(252,630,o),
(110,520,o),
(108,493,cs),
(99,364,o),
(89,235,o),
(79,106,cs),
(75,42,o),
(88,-1,o),
(119,-1,cs),
(143,-1,o),
(270,129,o),
(241,129,cs),
(220,129,o),
(216,150,o),
(221,214,cs),
(230,343,o),
(240,472,o),
(250,601,cs)
);
}
);
width = 495;
}
);
unicode = 80;
},
{
glyphname = Q;
lastChange = "2023-11-02 07:03:34 +0000";
layers = (
{
layerId = m01;
shapes = (
{
closed = 1;
nodes = (
(103,15,o),
(121,-57,o),
(215,17,cs),
(302,84,o),
(450,224,o),
(435,413,cs),
(428,503,o),
(383,605,o),
(278,715,cs),
(263,730,o),
(177,565,o),
(192,549,cs),
(290,446,o),
(335,368,o),
(348,308,cs),
(376,175,o),
(247,127,o),
(191,83,cs)
);
},
{
closed = 1;
nodes = (
(274,648,o),
(312,766,o),
(244,687,cs),
(179,612,o),
(-42,332,o),
(-30,147,cs),
(-24,68,o),
(23,7,o),
(143,-14,cs),
(181,-20,o),
(312,102,o),
(269,110,cs),
(158,129,o),
(113,185,o),
(104,253,cs),
(84,391,o),
(212,576,o),
(212,577,cs)
);
},
{
closed = 1;
nodes = (
(256,335,o),
(213,290,o),
(215,273,cs),
(222,218,o),
(259,103,o),
(317,35,cs),
(351,-6,o),
(393,-29,o),
(439,-13,cs),
(464,-4,o),
(536,198,o),
(507,187,cs),
(460,170,o),
(403,178,o),
(355,202,cs),
(305,227,o),
(265,270,o),
(259,319,cs)
);
}
);
width = 484;
}
);
unicode = 81;
},
{
glyphname = R;
lastChange = "2023-11-02 06:24:32 +0000";
layers = (
{
layerId = m01;
shapes = (
{
closed = 1;
nodes = (
(224,621,o),
(153,470,o),
(155,421,cs),
(158,338,o),
(243,209,o),
(330,115,cs),
(403,36,o),
(478,-17,o),
(506,5,cs),
(531,24,o),
(588,193,o),
(560,171,cs),
(533,151,o),
(470,196,o),
(406,264,cs),
(318,359,o),
(228,498,o),
(225,575,cs)
);
},
{
closed = 1;
nodes = (
(64,143,o),
(8,-27,o),
(39,2,cs),
(58,20,o),
(92,29,o),
(124,27,cs),
(148,26,o),
(171,17,o),
(184,0,cs),
(199,-19,o),
(261,150,o),
(248,168,cs),
(232,189,o),
(202,199,o),
(171,198,cs),
(141,197,o),
(111,186,o),
(89,166,cs)
);
},
{
closed = 1;
nodes = (
(223,642,o),
(130,560,o),
(126,462,cs),
(118,287,o),
(124,300,o),
(104,63,cs),
(100,17,o),
(179,64,o),
(182,105,cs),
(204,358,o),
(210,373,o),
(218,540,cs)
);
},
{
closed = 1;
nodes = (
(219,236,o),
(279,220,o),
(347,302,cs),
(453,431,o),
(480,523,o),
(463,587,cs),
(433,698,o),
(270,722,o),
(162,695,cs),
(139,690,o),
(47,534,o),
(74,541,cs),
(211,574,o),
(314,541,o),
(337,470,cs),
(350,430,o),
(337,377,o),
(287,318,cs)
);
}
);
width = 598;
}
);
unicode = 82;
},
{
glyphname = S;
lastChange = "2023-11-02 06:32:28 +0000";
layers = (
{
layerId = m01;
shapes = (
{
closed = 1;
nodes = (
(265,418,o),
(389,525,o),
(415,574,cs),
(441,625,o),
(410,709,o),
(335,715,cs),
(300,718,o),
(255,703,o),
(203,660,cs),
(134,603,o),
(93,526,o),
(169,588,cs),
(191,606,o),
(233,593,o),
(263,567,cs),
(292,542,o),
(310,506,o),
(291,470,cs)
);
},
{
closed = 1;
nodes = (
(204,663,o),
(78,551,o),
(60,509,cs),
(16,409,o),
(93,359,o),
(162,294,cs),
(227,234,o),
(302,188,o),
(260,86,cs),
(245,49,o),
(370,163,o),
(386,202,cs),
(438,326,o),
(349,356,o),
(284,416,cs),
(215,479,o),
(150,539,o),
(186,623,cs)
);
},
{
closed = 1;
nodes = (
(155,274,o),
(27,159,o),
(10,117,cs),
(-4,82,o),
(13,28,o),
(54,1,cs),
(95,-25,o),
(157,-26,o),
(235,40,cs),
(305,99,o),
(340,171,o),
(263,106,cs),
(249,94,o),
(204,107,o),
(171,134,cs),
(142,157,o),
(121,191,o),
(136,227,cs)
);
}
);
width = 429;
}
);
unicode = 83;
},
{
glyphname = T;
lastChange = "2023-11-02 06:24:32 +0000";
layers = (
{
background = {
shapes = (
{
closed = 0;
nodes = (
(379,614,l,{
"Letterink-NibData" = {
AngleInDegrees = "22";
MainAxisWidth = "150";
MinorAxisWidth = "37";
ValidForParentMainAxisWidth = "30";
ValidForParentMinorAxisWidth = "15";
};
}),
(319,585,o),
(84,635,o),
(29,587,c,{
"Letterink-NibData" = {
AngleInDegrees = "29";
MainAxisWidth = "150";
MinorAxisWidth = "15";
ValidForParentMainAxisWidth = "30";
ValidForParentMinorAxisWidth = "15";
};
})
);
},
{
closed = 0;
nodes = (
(252,592,l,{
"Letterink-NibData" = {
MainAxisWidth = "60";
MinorAxisWidth = "35";
ValidForParentMainAxisWidth = "30";
ValidForParentMinorAxisWidth = "15";
};
}),
(149,459,o),
(106,314,o),
(100,237,cs,{
"Letterink-NibData" = {
MainAxisWidth = "150";
MinorAxisWidth = "25";
ValidForParentMainAxisWidth = "30";
ValidForParentMinorAxisWidth = "15";
};
}),
(91,130,o),
(161,52,o),
(237,60,c,{
"Letterink-NibData" = {
AngleInDegrees = "-6";
MainAxisWidth = "148";
MinorAxisWidth = "44";
ValidForParentMainAxisWidth = "30";
ValidForParentMinorAxisWidth = "15";
};
}),
(254,63,o),
(327,134,o),
(332,140,cs,{
"Letterink-NibData" = {
AngleInDegrees = "107";
MainAxisWidth = "5";
MinorAxisWidth = "-2";
ValidForParentMainAxisWidth = "30";
ValidForParentMinorAxisWidth = "15";
};
})
);
}
);
};
layerId = m01;
shapes = (
{
closed = 1;
nodes = (
(442,555,o),
(502,723,o),
(455,700,cs),
(428,687,o),
(348,695,o),
(270,699,cs),
(198,702,o),
(128,701,o),
(100,676,cs),
(76,655,o),
(33,484,o),
(58,506,cs),
(86,530,o),
(171,526,o),
(251,524,cs),
(314,522,o),
(373,522,o),
(403,536,cs)
);
},
{
closed = 1;
nodes = (
(362,628,o),
(311,646,o),
(278,602,cs),
(154,443,o),
(93,262,o),
(85,164,cs),
(76,53,o),
(133,-24,o),
(223,-14,cs),
(251,-11,o),
(386,102,o),
(353,98,cs),
(291,92,o),
(207,177,o),
(215,280,cs),
(220,336,o),
(244,475,o),
(326,582,cs)
);
}
);
width = 452;
}
);
unicode = 84;
},
{
glyphname = U;
lastChange = "2023-11-02 06:24:32 +0000";
layers = (
{
layerId = m01;
shapes = (
{
closed = 1;
nodes = (
(405,376,o),
(365,382,o),
(362,355,cs),
(335,114,o),
(263,124,o),
(251,124,cs),
(202,120,o),
(190,203,o),
(199,293,cs),
(210,394,o),
(219,495,o),
(229,596,cs),
(236,664,o),
(204,723,o),
(152,706,cs),
(119,695,o),
(-3,565,o),
(38,578,cs),
(82,593,o),
(89,550,o),
(85,502,cs),
(74,401,o),
(65,300,o),
(55,199,cs),
(44,96,o),
(107,-23,o),
(203,-16,cs),
(327,-6,o),
(387,220,o),
(402,351,cs)
);
},
{
closed = 1;
nodes = (
(469,-11,o),
(584,108,o),
(551,104,cs),
(495,97,o),
(473,200,o),
(482,293,cs),
(493,394,o),
(503,495,o),
(513,596,cs),
(520,664,o),
(487,723,o),
(435,706,cs),
(402,695,o),
(280,565,o),
(321,578,cs),
(365,593,o),
(374,550,o),
(369,502,cs),
(358,401,o),
(348,300,o),
(338,199,cs),
(326,88,o),
(371,-23,o),
(443,-14,cs)
);
}
);
width = 592;
}
);
unicode = 85;
},
{
glyphname = V;
kernLeft = v;
kernRight = v;
lastChange = "2023-11-02 06:35:18 +0000";
layers = (
{
layerId = m01;
shapes = (
{
closed = 1;
nodes = (
(509,646,o),
(426,627,o),
(420,607,cs),
(361,408,o),
(266,102,o),
(252,13,cs),
(249,-8,o),
(351,73,o),
(354,91,cs),
(364,154,o),
(449,442,o),
(502,623,cs)
);
},
{
closed = 1;
nodes = (
(543,572,o),
(597,740,o),
(566,711,cs),
(546,693,o),
(511,683,o),
(479,686,cs),
(455,688,o),
(434,696,o),
(421,713,cs),
(407,731,o),
(342,564,o),
(357,545,cs),
(374,524,o),
(405,514,o),
(437,515,cs),
(466,517,o),
(495,528,o),
(516,547,cs)
);
},
{
closed = 1;
nodes = (
(245,-16,o),
(398,102,o),
(343,102,cs),
(291,102,o),
(255,476,o),
(225,635,cs),
(215,689,o),
(168,721,o),
(134,711,cs),
(102,701,o),
(-21,571,o),
(18,583,cs),
(56,595,o),
(87,563,o),
(97,511,cs),
(121,382,o),
(123,-16,o),
(201,-16,cs)
);
}
);
width = 565;
}
);
unicode = 86;
},
{
glyphname = W;
lastChange = "2023-11-02 07:03:58 +0000";
layers = (
{
layerId = m01;
shapes = (
{
closed = 1;
nodes = (
(376,-23,o),
(497,97,o),
(486,114,cs),
(416,225,o),
(448,647,o),
(392,699,cs),
(378,712,o),
(257,593,o),
(272,579,cs),
(322,533,o),
(294,109,o),
(366,-6,cs)
);
},
{
closed = 1;
nodes = (
(655,630,o),
(565,592,o),
(556,567,cs),
(477,333,o),
(405,45,o),
(404,39,cs),
(395,7,o),
(487,86,o),
(494,113,cs),
(497,123,o),
(565,366,o),
(646,603,cs)
);
},
{
closed = 1;
nodes = (
(419,636,o),
(328,596,o),
(320,573,cs),
(280,465,o),
(195,92,o),
(194,91,cs),
(145,30,o),
(207,54,o),
(254,113,cs),
(289,157,o),
(382,535,o),
(408,607,cs)
);
},
{
closed = 1;
nodes = (
(128,-26,o),
(256,101,o),
(249,120,cs),
(227,183,o),
(222,298,o),
(216,410,cs),
(207,567,o),
(196,717,o),
(131,697,cs),
(99,688,o),
(-16,565,o),
(23,577,cs),
(73,592,o),
(80,474,o),
(84,334,cs),
(89,214,o),
(92,77,o),
(121,-4,cs)
);
},
{
closed = 1;
nodes = (
(692,559,o),
(746,728,o),
(715,698,cs),
(697,681,o),
(662,671,o),
(630,673,cs),
(604,674,o),
(579,682,o),
(566,700,cs),
(552,718,o),
(488,552,o),
(502,532,cs),
(518,511,o),
(550,501,o),
(583,502,cs),
(613,504,o),
(645,514,o),
(665,534,cs)
);
}
);
width = 674;
}
);
unicode = 87;
},
{
glyphname = X;
lastChange = "2023-11-02 07:04:34 +0000";
layers = (
{
layerId = m01;
shapes = (
{
closed = 1;
nodes = (
(497,612,o),
(402,596,o),
(386,572,cs),
(366,543,o),
(116,130,o),
(116,130,cs),
(101,105,o),
(198,124,o),
(211,146,cs),
(224,167,o),
(450,543,o),
(480,588,cs)
);
},
{
closed = 1;
nodes = (
(417,4,o),
(526,147,o),
(496,142,cs),
(430,131,o),
(259,717,o),
(181,698,cs),
(155,692,o),
(46,548,o),
(77,556,cs),
(142,571,o),
(315,-13,o),
(391,0,cs)
);
},
{
closed = 1;
nodes = (
(106,-47,o),
(219,91,o),
(221,122,cs),
(222,146,o),
(208,175,o),
(189,200,cs),
(170,225,o),
(146,246,o),
(127,250,cs),
(109,255,o),
(-3,113,o),
(18,108,cs),
(30,104,o),
(52,85,o),
(71,61,cs),
(91,36,o),
(108,7,o),
(107,-12,cs)
);
},
{
closed = 1;
nodes = (
(475,449,o),
(586,591,o),
(565,596,cs),
(550,600,o),
(526,624,o),
(506,650,cs),
(489,674,o),
(475,700,o),
(476,716,cs),
(477,749,o),
(364,616,o),
(362,582,cs),
(361,558,o),
(374,531,o),
(391,508,cs),
(411,480,o),
(438,458,o),
(456,454,cs)
);
}
);
width = 553;
}
);
unicode = 88;
},
{
glyphname = Y;
lastChange = "2023-11-02 06:45:30 +0000";
layers = (
{
layerId = m01;
shapes = (
{
closed = 1;
nodes = (
(525,674,o),
(437,656,o),
(418,597,cs),
(414,584,o),
(181,128,o),
(174,113,cs),
(143,53,o),
(223,51,o),
(254,111,cs),
(256,114,o),
(495,579,o),
(506,613,cs)
);
},
{
closed = 1;
nodes = (
(542,572,o),
(596,740,o),
(565,711,cs),
(546,694,o),
(513,684,o),
(483,686,cs),
(458,687,o),
(434,695,o),
(420,713,cs),
(406,731,o),
(341,564,o),
(356,545,cs),
(370,527,o),
(395,517,o),
(421,516,cs),
(454,514,o),
(491,524,o),
(515,547,cs)
);
},
{
closed = 1;
nodes = (
(274,329,o),
(389,457,o),
(341,434,cs),
(311,421,o),
(284,473,o),
(256,537,cs),
(219,622,o),
(181,726,o),
(133,710,cs),
(99,698,o),
(-23,568,o),
(19,582,cs),
(58,596,o),
(90,489,o),
(129,404,cs),
(158,341,o),
(191,290,o),
(233,310,cs)
);
},
{
closed = 1;
nodes = (
(125,143,o),
(69,-27,o),
(100,2,cs),
(117,18,o),
(145,27,o),
(173,28,cs),
(202,28,o),
(230,20,o),
(245,0,cs),
(260,-19,o),
(322,150,o),
(309,168,cs),
(293,188,o),
(265,198,o),
(235,198,cs),
(205,198,o),
(172,187,o),
(150,166,cs)
);
}
);
width = 524;
}
);
unicode = 89;
},
{
glyphname = Z;
lastChange = "2023-11-02 06:33:16 +0000";
layers = (
{
layerId = m01;
shapes = (
{
closed = 1;
nodes = (
(7,122,o),
(-40,-40,o),
(15,6,cs),
(56,42,o),
(119,22,o),
(183,8,cs),
(239,-4,o),
(295,-12,o),
(339,25,cs),
(362,44,o),
(408,218,o),
(381,195,cs),
(338,159,o),
(287,173,o),
(232,185,cs),
(174,199,o),
(112,211,o),
(51,160,cs)
);
},
{
closed = 1;
nodes = (
(92,681,o),
(33,512,o),
(56,521,cs),
(113,542,o),
(166,538,o),
(221,534,cs),
(273,529,o),
(327,524,o),
(384,540,cs),
(405,546,o),
(466,717,o),
(442,710,cs),
(374,690,o),
(311,702,o),
(247,706,cs),
(204,709,o),
(160,707,o),
(114,689,cs)
);
},
{
closed = 1;
nodes = (
(418,604,o),
(320,590,o),
(311,568,cs),
(253,426,o),
(66,211,o),
(31,100,cs),
(24,78,o),
(123,94,o),
(129,114,cs),
(162,219,o),
(349,434,o),
(409,582,cs)
);
},
{
closed = 1;
nodes = (
(123,454,o),
(64,285,o),
(87,291,cs),
(130,304,o),
(243,243,o),
(296,251,cs),
(316,254,o),
(377,424,o),
(354,421,cs),
(305,413,o),
(193,474,o),
(145,461,cs)
);
}
);
width = 462;
}
);
unicode = 90;
},
{
glyphname = a;
lastChange = "2023-11-02 06:24:32 +0000";
layers = (
{
layerId = m01;
shapes = (
{
closed = 1;
nodes = (
(55,-28,o),
(134,18,o),
(138,60,cs),
(152,187,o),
(176,332,o),
(184,370,cs),
(211,500,o),
(232,557,o),
(254,561,cs),
(308,571,o),
(316,499,o),
(305,409,cs),
(293,310,o),
(283,212,o),
(272,113,cs),
(264,48,o),
(275,9,o),
(310,1,cs),
(331,-4,o),
(458,124,o),
(434,129,cs),
(409,135,o),
(410,154,o),
(416,205,cs),
(428,304,o),
(437,402,o),
(449,501,cs),
(462,603,o),
(411,732,o),
(306,713,cs),
(157,686,o),
(122,466,o),
(106,386,cs),
(98,350,o),
(74,159,o),
(60,18,cs)
);
},
{
closed = 1;
nodes = (
(74,425,o),
(13,255,o),
(34,255,cs),
(172,256,o),
(309,256,o),
(447,256,cs),
(466,256,o),
(528,426,o),
(507,426,cs),
(369,425,o),
(232,425,o),
(94,425,cs)
);
}
);
width = 541;
}
);
unicode = 97;
},
{
glyphname = b;
lastChange = "2023-11-02 07:05:25 +0000";
layers = (
{
layerId = m01;
shapes = (
{
closed = 1;
nodes = (
(47,207,o),
(60,101,o),
(80,184,cs),
(100,270,o),
(218,316,o),
(300,298,cs),
(363,284,o),
(405,233,o),
(368,133,cs),
(346,76,o),
(456,196,o),
(476,249,cs),
(529,388,o),
(427,463,o),
(310,462,cs),
(207,462,o),
(94,403,o),
(64,278,cs)
);
},
{
closed = 1;
nodes = (
(161,377,o),
(150,285,o),
(231,345,cs),
(390,462,o),
(443,561,o),
(438,627,cs),
(432,688,o),
(378,721,o),
(310,715,cs),
(225,706,o),
(118,634,o),
(67,473,cs),
(33,364,o),
(111,342,o),
(147,455,cs),
(168,523,o),
(232,555,o),
(275,556,cs),
(300,556,o),
(318,545,o),
(315,523,cs),
(312,502,o),
(289,471,o),
(235,431,cs)
);
},
{
closed = 1;
nodes = (
(159,497,o),
(83,521,o),
(68,469,cs),
(43,378,o),
(34,219,o),
(34,145,cs),
(34,92,o),
(120,99,o),
(120,153,cs),
(120,213,o),
(125,372,o),
(146,449,cs)
);
},
{
closed = 1;
nodes = (
(505,362,o),
(462,323,o),
(435,228,cs),
(418,166,o),
(310,139,o),
(228,158,cs),
(160,174,o),
(111,220,o),
(149,303,cs),
(177,367,o),
(70,255,o),
(43,195,cs),
(-3,92,o),
(81,-6,o),
(190,-16,cs),
(292,-24,o),
(417,46,o),
(479,266,cs)
);
}
);
width = 525;
}
);
unicode = 98;
},
{
glyphname = c;
lastChange = "2023-11-02 06:45:53 +0000";
layers = (
{
layerId = m01;
shapes = (
{
closed = 1;
nodes = (
(349,444,o),
(461,586,o),
(456,607,cs),
(450,630,o),
(411,706,o),
(340,701,cs),
(298,699,o),
(245,669,o),
(180,585,cs),
(52,418,o),
(16,259,o),
(35,147,cs),
(50,56,o),
(103,-7,o),
(173,-14,cs),
(227,-20,o),
(293,9,o),
(359,77,cs),
(443,161,o),
(457,261,o),
(368,171,cs),
(335,138,o),
(303,131,o),
(274,141,cs),
(229,157,o),
(191,216,o),
(175,285,cs),
(156,361,o),
(163,450,o),
(209,511,cs),
(223,530,o),
(255,543,o),
(285,536,cs),
(309,531,o),
(332,511,o),
(343,469,cs)
);
}
);
width = 486;
}
);
unicode = 99;
},
{
glyphname = d;
lastChange = "2023-11-02 07:05:33 +0000";
layers = (
{
layerId = m01;
shapes = (
{
closed = 1;
nodes = (
(92,740,o),
(28,572,o),
(45,559,cs),
(205,436,o),
(298,335,o),
(331,235,cs),
(355,162,o),
(346,91,o),
(309,12,cs),
(285,-38,o),
(411,71,o),
(433,118,cs),
(467,188,o),
(474,254,o),
(458,319,cs),
(426,454,o),
(297,582,o),
(108,727,cs)
);
},
{
closed = 1;
nodes = (
(166,591,o),
(90,569,o),
(87,547,cs),
(66,394,o),
(44,241,o),
(23,88,cs),
(20,66,o),
(96,89,o),
(99,110,cs),
(120,263,o),
(142,416,o),
(163,569,cs)
);
},
{
closed = 1;
nodes = (
(59,220,o),
(-4,52,o),
(13,39,cs),
(59,3,o),
(128,-13,o),
(194,-15,cs),
(237,-16,o),
(278,-10,o),
(312,0,cs),
(333,6,o),
(391,177,o),
(367,170,cs),
(326,158,o),
(273,153,o),
(221,158,cs),
(166,163,o),
(113,179,o),
(76,207,cs)
);
}
);
width = 506;
}
);
unicode = 100;
},
{
glyphname = e;
lastChange = "2023-11-02 06:24:32 +0000";
layers = (
{
layerId = m01;
shapes = (
{
closed = 1;
nodes = (
(310.619,454.27,o),
(438.273,581.885,o),
(431.224,600.745,cs),
(394.418,699.228,o),
(322.158,730.021,o),
(268.519,704.264,cs),
(14.733,582.402,o),
(51.014,137.963,o),
(32.974,45.429,cs),
(21.823,-11.768,o),
(41.931,2.694,o),
(44.28,3.529,cs),
(88.537,19.265,o),
(120.535,26.899,o),
(170.729,18.3,cs),
(228.892,8.336,o),
(317.197,-13.7,o),
(367.296,27.29,cs),
(393.606,48.816,o),
(449.368,217.799,o),
(418.704,192.71,cs),
(380.803,161.7,o),
(289.129,177.788,o),
(231.271,187.7,cs),
(187.482,195.201,o),
(151.463,196.735,o),
(105.72,180.471,c),
(109.489,166.504,o),
(113.257,152.537,o),
(117.026,138.571,c),
(166.98,394.804,o),
(185.506,539.342,o),
(215.481,553.736,cs),
(228.626,560.047,o),
(265.424,575.195,o),
(302.776,475.255,cs)
);
},
{
closed = 1;
nodes = (
(63.231,437.661,o),
(2.981,268.21,o),
(24.276,268.276,cs),
(131.943,268.609,o),
(239.61,268.942,o),
(347.276,269.276,cs),
(367.333,269.338,o),
(428.893,438.793,o),
(406.724,438.724,cs),
(299.057,438.391,o),
(191.39,438.058,o),
(83.724,437.724,cs)
);
}
);
width = 461;
}
);
unicode = 101;
},
{
glyphname = f;
lastChange = "2023-11-02 06:24:32 +0000";
layers = (
{
layerId = m01;
shapes = (
{
closed = 1;
nodes = (
(438,592,o),
(483,752,o),
(447,704,cs),
(421,671,o),
(354,659,o),
(310,659,cs),
(255,659,o),
(193,681,o),
(160,710,cs),
(130,738,o),
(81,578,o),
(81,574,cs),
(63,383,o),
(45,198,o),
(28,14,cs),
(23,-32,o),
(103,15,o),
(106,56,cs),
(126,268,o),
(146,479,o),
(165,684,c),
(139,638,o),
(112,593,o),
(86,548,c),
(125,511,o),
(193,489,o),
(250,489,cs),
(302,489,o),
(359,489,o),
(405,550,cs)
);
},
{
closed = 1;
nodes = (
(344,226,o),
(394,399,o),
(373,400,cs),
(275,400,o),
(176,401,o),
(78,402,cs),
(59,402,o),
(9,229,o),
(30,228,cs),
(128,228,o),
(227,227,o),
(325,226,cs)
);
}
);
width = 445;
}
);
unicode = 102;
},
{
glyphname = g;
lastChange = "2023-11-02 06:24:32 +0000";
layers = (
{
layerId = m01;
shapes = (
{
closed = 1;
nodes = (
(277,350,o),
(189,218,o),
(250,266,cs),
(263,277,o),
(296,286,o),
(319,272,cs),
(334,262,o),
(345,243,o),
(342,209,cs),
(340,168,o),
(332,126,o),
(327,85,cs),
(319,13,o),
(336,-8,o),
(352,-15,cs),
(371,-23,o),
(498,104,o),
(478,113,cs),
(467,118,o),
(460,125,o),
(469,193,cs),
(473,234,o),
(481,275,o),
(484,317,cs),
(486,365,o),
(456,402,o),
(416,412,cs),
(389,419,o),
(356,413,o),
(326,390,cs)
);
},
{
closed = 1;
nodes = (
(363,483,o),
(490,611,o),
(479,626,cs),
(434,687,o),
(385,719,o),
(332,717,cs),
(276,715,o),
(216,674,o),
(156,591,cs),
(64,465,o),
(24,331,o),
(20,220,cs),
(17,98,o),
(58,5,o),
(126,-13,cs),
(167,-24,o),
(216,-8,o),
(272,44,cs),
(319,88,o),
(429,316,o),
(431,321,cs),
(446,367,o),
(378,348,o),
(363,303,cs),
(326,191,o),
(291,161,o),
(290,160,cs),
(261,133,o),
(235,125,o),
(215,131,cs),
(175,142,o),
(151,206,o),
(144,281,cs),
(136,372,o),
(151,481,o),
(190,535,cs),
(192,537,o),
(208,568,o),
(240,574,cs),
(267,578,o),
(304,564,o),
(351,500,cs)
);
}
);
width = 519;
}
);
unicode = 103;
},
{
glyphname = h;
lastChange = "2023-11-02 06:24:32 +0000";
layers = (
{
layerId = m01;
shapes = (
{
closed = 1;
nodes = (
(89,437,o),
(28,267,o),
(49,267,cs),
(193,268,o),
(338,268,o),
(482,268,cs),
(501,268,o),
(563,438,o),
(542,438,cs),
(398,437,o),
(253,437,o),
(109,437,cs)
);
},
{
closed = 1;
nodes = (
(210,726,o),
(80,603,o),
(90,584,cs),
(107,552,o),
(108,548,o),
(103,500,cs),
(92,369,o),
(84,237,o),
(74,106,cs),
(69,39,o),
(83,20,o),
(112,0,cs),
(128,-11,o),
(255,116,o),
(238,128,cs),
(215,144,o),
(211,153,o),
(216,214,cs),
(226,345,o),
(233,477,o),
(245,608,cs),
(249,662,o),
(239,674,o),
(220,708,cs)
);
},
{
closed = 1;
nodes = (
(478,726,o),
(348,603,o),
(358,584,cs),
(375,553,o),
(375,548,o),
(371,500,cs),
(361,369,o),
(352,237,o),
(342,106,cs),
(337,39,o),
(351,20,o),
(380,0,cs),
(396,-11,o),
(523,116,o),
(506,128,cs),
(483,144,o),
(479,153,o),
(484,214,cs),
(494,345,o),
(503,477,o),
(513,608,cs),
(517,662,o),
(507,673,o),
(488,708,cs)
);
}
);
width = 591;
}
);
unicode = 104;
},
{
glyphname = i;
kernLeft = i;
kernRight = i;
lastChange = "2023-11-02 06:24:32 +0000";
layers = (
{
layerId = m01;
shapes = (
{
closed = 1;
nodes = (
(187,726,o),
(57,603,o),
(67,584,cs),
(84,553,o),
(85,548,o),
(80,490,cs),
(70,362,o),
(61,234,o),
(51,106,cs),
(46,39,o),
(60,20,o),
(89,0,cs),
(105,-11,o),
(232,116,o),
(215,128,cs),
(192,144,o),
(188,153,o),
(193,214,cs),
(202,342,o),
(211,470,o),
(222,598,cs),
(227,662,o),
(216,673,o),
(197,708,cs)
);
}
);
width = 273;
}
);
unicode = 105;
},
{
glyphname = j;
lastChange = "2023-11-02 07:05:53 +0000";
layers = (
{
layerId = m01;
shapes = (
{
closed = 1;
nodes = (
(164,307,o),
(35,198,o),
(13,153,cs),
(-9,107,o),
(-1,59,o),
(26,26,cs),
(73,-31,o),
(174,-44,o),
(269,77,cs),
(318,141,o),
(323,230,o),
(269,161,cs),
(233,115,o),
(171,115,o),
(141,149,cs),
(121,171,o),
(115,208,o),
(139,257,cs)
);
},
{
closed = 1;
nodes = (
(446,734,o),
(318,628,o),
(298,582,cs),
(290,563,o),
(278,552,o),
(272,493,cs),
(262,371,o),
(254,248,o),
(244,126,cs),
(236,13,o),
(294,132,o),
(293,131,cs),
(241,99,o),
(138,-24,o),
(201,15,cs),
(286,67,o),
(383,203,o),
(386,234,cs),
(395,356,o),
(403,479,o),
(414,601,cs),
(419,664,o),
(418,673,o),
(426,690,cs)
);
},
{
closed = 1;
nodes = (
(365,552,o),
(444,712,o),
(411,695,cs),
(397,688,o),
(356,693,o),
(312,696,cs),
(280,698,o),
(247,698,o),
(223,692,cs),
(200,686,o),
(94,515,o),
(123,523,cs),
(154,531,o),
(197,529,o),
(238,528,cs),
(278,527,o),
(315,527,o),
(336,537,cs)
);
}
);
width = 473;
}
);
unicode = 106;
},
{
glyphname = k;
lastChange = "2023-11-02 07:06:05 +0000";
layers = (
{
layerId = m01;
shapes = (
{
closed = 1;
nodes = (
(221,373,o),
(114,236,o),
(159,260,cs),
(218,290,o),
(265,285,o),
(302,260,cs),
(378,209,o),
(409,76,o),
(394,6,cs),
(386,-33,o),
(506,97,o),
(514,132,cs),
(530,209,o),
(497,367,o),
(400,408,cs),
(362,424,o),
(316,422,o),
(259,392,cs)
);
},
{
closed = 1;
nodes = (
(172,721,o),
(41,591,o),
(57,578,cs),
(62,575,o),
(80,551,o),
(76,496,cs),
(66,370,o),
(56,244,o),
(47,118,cs),
(42,54,o),
(42,0,o),
(87,0,cs),
(113,0,o),
(244,152,o),
(211,152,cs),
(188,152,o),
(187,165,o),
(191,230,cs),
(201,356,o),
(211,482,o),
(220,608,cs),
(226,677,o),
(198,701,o),
(187,710,cs)
);
},
{
closed = 1;
nodes = (
(543,693,o),
(519,696,o),
(491,693,cs),
(466,690,o),
(437,683,o),
(428,672,cs),
(403,643,o),
(154,321,o),
(149,315,cs),
(138,301,o),
(137,290,o),
(140,281,cs),
(150,262,o),
(192,261,o),
(219,295,cs),
(226,304,o),
(517,663,o),
(532,680,cs)
);
}
);
width = 575;
}
);
unicode = 107;
},
{
glyphname = l;
lastChange = "2023-11-02 06:43:12 +0000";
layers = (
{
layerId = m01;
shapes = (
{
closed = 1;
nodes = (
(157,721,o),
(26,591,o),
(42,578,cs),
(47,575,o),
(65,551,o),
(61,496,cs),
(51,370,o),
(41,244,o),
(32,118,cs),
(27,54,o),
(27,0,o),
(72,0,cs),
(98,0,o),
(229,152,o),
(196,152,cs),
(173,152,o),
(172,165,o),
(176,230,cs),
(186,356,o),
(196,482,o),
(205,608,cs),
(211,677,o),
(183,701,o),
(172,710,cs)
);
},
{
closed = 1;
nodes = (
(141,125,o),
(65,-7,o),
(112,30,cs),
(141,54,o),
(175,59,o),
(206,53,cs),
(246,46,o),
(281,20,o),
(289,1,cs),
(298,-22,o),
(400,127,o),
(391,147,cs),
(383,167,o),
(343,195,o),
(291,196,cs),
(257,197,o),
(218,187,o),
(178,156,cs)
);
}
);
width = 422;
}
);
unicode = 108;
},
{
glyphname = m;
lastChange = "2023-11-02 07:06:17 +0000";
layers = (
{
layerId = m01;
shapes = (
{
closed = 1;
nodes = (
(226,716,o),
(98,589,o),
(115,577,cs),
(145,556,o),
(177,433,o),
(201,299,cs),
(220,194,o),
(234,82,o),
(239,4,cs),
(240,-23,o),
(369,103,o),
(367,128,cs),
(363,200,o),
(352,300,o),
(336,397,cs),
(312,542,o),
(277,680,o),
(241,705,cs)
);
},
{
closed = 1;
nodes = (
(-23,4,o),
(-6,-4,o),
(15,4,cs),
(32,9,o),
(50,24,o),
(60,45,cs),
(103,139,o),
(130,236,o),
(147,324,cs),
(178,483,o),
(175,608,o),
(175,609,cs),
(175,644,o),
(105,595,o),
(105,563,cs),
(105,556,o),
(104,467,o),
(84,346,cs),
(68,253,o),
(40,140,o),
(-10,33,cs)
);
},
{
closed = 1;
nodes = (
(222,56,o),
(314,115,o),
(339,165,cs),
(451,391,o),
(507,627,o),
(507,629,cs),
(519,675,o),
(420,598,o),
(411,557,cs),
(408,548,o),
(357,331,o),
(251,115,cs)
);
},
{
closed = 1;
nodes = (
(532,703,o),
(404,573,o),
(432,573,cs),
(464,573,o),
(429,111,o),
(481,0,cs),
(490,-20,o),
(617,108,o),
(609,126,cs),
(557,239,o),
(598,703,o),
(554,703,cs)
);
}
);
width = 644;
}
);
unicode = 109;
},
{
glyphname = n;
lastChange = "2023-11-02 06:24:32 +0000";
layers = (
{
layerId = m01;
shapes = (
{
closed = 1;
nodes = (
(168,726,o),
(47,607,o),
(57,589,cs),
(148,426,o),
(248,117,o),
(351,21,cs),
(365,8,o),
(486,128,o),
(471,141,cs),
(370,235,o),
(270,544,o),
(179,707,cs)
);
},
{
closed = 1;
nodes = (
(26,-4,o),
(47,-4,o),
(68,8,cs),
(87,18,o),
(105,38,o),
(109,58,cs),
(120,118,o),
(160,586,o),
(160,587,cs),
(162,608,o),
(147,609,o),
(129,601,cs),
(108,592,o),
(84,568,o),
(82,545,cs),
(80,529,o),
(42,84,o),
(31,22,cs)
);
},
{
closed = 1;
nodes = (
(469,726,o),
(345,609,o),
(355,591,cs),
(372,560,o),
(374,554,o),
(369,496,cs),
(334,42,o),
(321,28,o),
(378,1,cs),
(396,-7,o),
(516,113,o),
(496,123,cs),
(459,140,o),
(467,146,o),
(503,598,cs),
(508,662,o),
(498,672,o),
(479,707,cs)
);
}
);
width = 549;
}
);
unicode = 110;
},
{
glyphname = o;
lastChange = "2023-11-02 07:06:27 +0000";
layers = (
{
layerId = m01;
shapes = (
{
closed = 1;
nodes = (
(434,176,o),
(475,317,o),
(471,437,cs),
(467,586,o),
(394,703,o),
(303,716,cs),
(241,724,o),
(172,687,o),
(108,583,cs),
(29,454,o),
(16,305,o),
(41,188,cs),
(66,75,o),
(126,-8,o),
(199,-14,cs),
(239,-17,o),
(281,2,o),
(324,50,cs)
);
},
{
closed = 1;
nodes = (
(307,129,o),
(295,124,o),
(282,126,cs),
(243,131,o),
(201,197,o),
(173,279,cs),
(139,377,o),
(126,498,o),
(166,563,cs),
(182,589,o),
(201,592,o),
(222,580,cs),
(263,557,o),
(307,475,o),
(332,386,cs),
(358,293,o),
(362,192,o),
(318,142,cs)
);
}
);
width = 501;
}
);
unicode = 111;
},
{
glyphname = p;
lastChange = "2023-11-02 07:06:36 +0000";
layers = (
{
layerId = m01;
shapes = (
{
closed = 1;
nodes = (
(110,303,o),
(34,195,o),
(114,225,cs),
(352,314,o),
(435,422,o),
(439,513,cs),
(444,636,o),
(307,730,o),
(209,716,cs),
(191,714,o),
(78,621,o),
(76,599,cs),
(67,435,o),
(55,270,o),
(45,106,cs),
(42,42,o),
(54,-1,o),
(85,-1,cs),
(109,-1,o),
(236,129,o),
(207,129,cs),
(186,129,o),
(183,150,o),
(187,214,cs),
(196,380,o),
(204,546,o),
(214,713,c),
(170,674,o),
(126,635,o),
(81,596,c),
(239,618,o),
(286,547,o),
(278,471,cs),
(272,411,o),
(229,347,o),
(180,329,cs)
);
}
);
width = 459;
}
);
unicode = 112;
},
{
glyphname = q;
lastChange = "2023-11-02 07:06:43 +0000";
layers = (
{
layerId = m01;
shapes = (
{
closed = 1;
nodes = (
(524,204,o),
(564,387,o),
(533,521,cs),
(508,627,o),
(437,702,o),
(354,715,cs),
(285,725,o),
(207,693,o),
(140,600,cs),
(19,432,o),
(15,265,o),
(64,148,cs),
(102,56,o),
(161,-7,o),
(231,-11,cs),
(267,-14,o),
(314,2,o),
(345,32,cs)
);
},
{
closed = 1;
nodes = (
(367,126,o),
(334,119,o),
(304,131,cs),
(265,147,o),
(232,193,o),
(208,250,cs),
(161,358,o),
(145,503,o),
(176,546,cs),
(211,595,o),
(251,593,o),
(287,564,cs),
(327,532,o),
(365,467,o),
(390,398,cs),
(426,300,o),
(438,195,o),
(403,160,cs)
);
},
{
closed = 1;
nodes = (
(337,326,o),
(283,264,o),
(298,242,cs),
(312,220,o),
(470,-9,o),
(470,-9,cs),
(485,-31,o),
(540,30,o),
(524,53,cs),
(516,65,o),
(374,271,o),
(353,303,cs)
);
}
);
width = 587;
}
);
unicode = 113;
},
{
glyphname = r;
lastChange = "2023-11-02 06:50:43 +0000";
layers = (
{
layerId = m01;
shapes = (
{
closed = 1;
nodes = (
(97,354,o),
(31,207,o),
(63,225,cs),
(147,275,o),
(216,283,o),
(263,262,cs),
(328,231,o),
(350,142,o),
(310,20,cs),
(289,-44,o),
(419,55,o),
(438,114,cs),
(496,289,o),
(424,403,o),
(304,416,cs),
(251,422,o),
(187,407,o),
(121,369,cs)
);
},
{
closed = 1;
nodes = (
(157,319,o),
(160,236,o),
(243,304,cs),
(390,423,o),
(440,526,o),
(437,599,cs),
(433,671,o),
(378,714,o),
(311,714,cs),
(236,715,o),
(147,662,o),
(98,539,cs),
(57,435,o),
(120,385,o),
(164,497,cs),
(180,539,o),
(234,552,o),
(273,541,cs),
(303,532,o),
(324,508,o),
(309,470,cs),
(300,446,o),
(277,417,o),
(235,382,cs)
);
},
{
closed = 1;
nodes = (
(177,538,o),
(106,559,o),
(90,509,cs),
(57,406,o),
(34,81,o),
(30,15,cs),
(26,-30,o),
(106,18,o),
(108,59,cs),
(112,105,o),
(141,426,o),
(162,491,cs)
);
}
);
width = 488;
}
);
unicode = 114;
},
{
glyphname = s;
lastChange = "2023-11-02 06:24:32 +0000";
layers = (
{
layerId = m01;
shapes = (
{
closed = 1;
nodes = (
(70,270,o),
(4,106,o),
(17,80,cs),
(32,51,o),
(82,-3,o),
(147,-14,cs),
(200,-22,o),
(263,-2,o),
(325,86,cs),
(498,333,o),
(400,352,o),
(295,420,cs),
(136,524,o),
(167,552,o),
(172,559,cs),
(179,569,o),
(205,571,o),
(238,562,cs),
(285,549,o),
(344,514,o),
(375,447,cs),
(386,422,o),
(449,592,o),
(439,613,cs),
(426,642,o),
(365,713,o),
(290,714,cs),
(246,715,o),
(197,692,o),
(150,625,cs),
(-5,404,o),
(66,358,o),
(171,290,cs),
(331,185,o),
(318,174,o),
(303,152,cs),
(293,138,o),
(256,136,o),
(214,147,cs),
(165,160,o),
(109,192,o),
(83,246,cs)
);
}
);
width = 470;
}
);
unicode = 115;
},
{
glyphname = t;
lastChange = "2023-11-02 06:24:32 +0000";
layers = (
{
layerId = m01;
shapes = (
{
closed = 1;
nodes = (
(430,541,o),
(498,708,o),
(456,701,cs),
(357,684,o),
(144,717,o),
(81,684,cs),
(59,672,o),
(13,500,o),
(37,512,cs),
(90,539,o),
(295,518,o),
(396,535,cs)
);
},
{
closed = 1;
nodes = (
(285,570,o),
(151,443,o),
(160,423,cs),
(173,393,o),
(112,78,o),
(145,-2,cs),
(154,-22,o),
(285,109,o),
(277,128,cs),
(246,202,o),
(309,513,o),
(294,549,cs)
);
}
);
width = 444;
}
);
unicode = 116;
},
{
glyphname = u;
lastChange = "2023-11-02 06:53:20 +0000";
layers = (
{
layerId = m01;
shapes = (
{
closed = 1;
nodes = (
(143,720,o),
(14,593,o),
(32,573,cs),
(42,561,o),
(52,543,o),
(48,497,cs),
(39,399,o),
(30,300,o),
(21,201,cs),
(9,78,o),
(104,-46,o),
(234,-4,cs),
(342,30,o),
(420,155,o),
(438,245,cs),
(460,351,o),
(467,682,o),
(468,690,cs),
(469,733,o),
(390,686,o),
(388,644,cs),
(388,632,o),
(378,351,o),
(360,261,cs),
(336,145,o),
(282,122,o),
(276,120,cs),
(186,92,o),
(155,182,o),
(165,295,cs),
(174,393,o),
(183,492,o),
(192,591,cs),
(199,659,o),
(174,683,o),
(160,699,cs)
);
}
);
width = 498;
}
);
unicode = 117;
},
{
glyphname = v;
kernLeft = v;
kernRight = v;
lastChange = "2023-11-02 06:51:41 +0000";
layers = (
{
layerId = m01;
shapes = (
{
closed = 1;
nodes = (
(490,751,o),
(400,700,o),
(388,652,cs),
(344,480,o),
(225,124,o),
(213,74,cs),
(200,21,o),
(290,76,o),
(301,122,cs),
(311,164,o),
(430,520,o),
(476,698,cs)
);
},
{
closed = 1;
nodes = (
(190,-34,o),
(317,94,o),
(289,116,cs),
(272,130,o),
(256,143,o),
(242,230,cs),
(230,304,o),
(226,429,o),
(201,600,cs),
(191,668,o),
(175,708,o),
(147,715,cs),
(128,720,o),
(-1,592,o),
(23,587,cs),
(35,584,o),
(56,548,o),
(65,482,cs),
(90,317,o),
(86,194,o),
(98,124,cs),
(113,29,o),
(138,8,o),
(163,-12,cs)
);
}
);
width = 447;
}
);
unicode = 118;
},
{
glyphname = w;
lastChange = "2023-11-02 06:52:26 +0000";
layers = (
{
layerId = m01;
shapes = (
{
closed = 1;
nodes = (
(351,-24,o),
(471,96,o),
(462,113,cs),
(401,224,o),
(435,647,o),
(381,699,cs),
(367,712,o),
(246,593,o),
(260,579,cs),
(308,533,o),
(277,110,o),
(341,-5,cs)
);
},
{
closed = 1;
nodes = (
(681,718,o),
(610,704,o),
(588,652,cs),
(449,330,o),
(398,53,o),
(397,47,cs),
(391,18,o),
(475,97,o),
(480,121,cs),
(482,131,o),
(527,361,o),
(659,668,cs)
);
},
{
closed = 1;
nodes = (
(122,-24,o),
(242,96,o),
(233,113,cs),
(172,224,o),
(205,647,o),
(152,699,cs),
(138,712,o),
(17,593,o),
(31,579,cs),
(78,533,o),
(48,110,o),
(112,-5,cs)
);
},
{
closed = 1;
nodes = (
(424,643,o),
(354,629,o),
(330,578,cs),
(221,337,o),
(174,57,o),
(173,54,cs),
(168,25,o),
(241,90,o),
(246,114,cs),
(248,125,o),
(298,365,o),
(401,592,cs)
);
}
);
width = 643;
}
);
unicode = 119;
},
{
glyphname = x;
lastChange = "2023-11-02 07:07:10 +0000";
layers = (
{
layerId = m01;
shapes = (
{
closed = 1;
nodes = (
(543,683,o),
(531,698,o),
(512,701,cs),
(493,703,o),
(467,694,o),
(451,670,cs),
(426,631,o),
(20,46,o),
(19,45,cs),
(4,24,o),
(10,9,o),
(24,4,cs),
(42,-4,o),
(74,4,o),
(93,31,cs),
(111,57,o),
(486,596,o),
(527,658,cs)
);
},
{
closed = 1;
nodes = (
(414,4,o),
(523,148,o),
(493,142,cs),
(455,136,o),
(378,328,o),
(305,489,cs),
(252,606,o),
(201,706,o),
(168,698,cs),
(142,692,o),
(33,548,o),
(65,556,cs),
(96,563,o),
(155,430,o),
(216,292,cs),
(281,145,o),
(349,-7,o),
(388,0,cs)
);
}
);
width = 539;
}
);
unicode = 120;
},
{
glyphname = y;
lastChange = "2023-11-02 06:45:06 +0000";
layers = (
{
layerId = m01;
shapes = (
{
closed = 1;
nodes = (
(554,696,o),
(542,707,o),
(524,706,cs),
(500,705,o),
(464,682,o),
(453,646,cs),
(447,628,o),
(152,59,o),
(143,41,cs),
(130,15,o),
(136,0,o),
(150,-4,cs),
(170,-11,o),
(208,5,o),
(227,43,cs),
(229,46,o),
(534,633,o),
(546,670,cs)
);
},
{
closed = 1;
nodes = (
(284,329,o),
(399,457,o),
(351,434,cs),
(281,402,o),
(226,738,o),
(143,710,cs),
(109,698,o),
(-13,568,o),
(29,582,cs),
(96,606,o),
(145,264,o),
(243,310,cs)
);
}
);
width = 499;
}
);
unicode = 121;
},
{
glyphname = z;
lastChange = "2023-11-02 07:07:38 +0000";
layers = (
{
layerId = m01;
shapes = (
{
closed = 1;
nodes = (
(5,128,o),
(-38,-40,o),
(13,4,cs),
(55,40,o),
(116,53,o),
(175,49,cs),
(232,46,o),
(289,28,o),
(325,1,cs),
(342,-12,o),
(404,157,o),
(387,169,cs),
(354,195,o),
(301,216,o),
(244,221,cs),
(178,227,o),
(105,213,o),
(45,162,cs)
);
},
{
closed = 1;
nodes = (
(118,727,o),
(54,560,o),
(69,541,cs),
(93,512,o),
(149,493,o),
(211,491,cs),
(273,490,o),
(339,505,o),
(384,543,cs),
(410,566,o),
(466,734,o),
(434,707,cs),
(398,676,o),
(336,662,o),
(277,663,cs),
(215,663,o),
(157,680,o),
(133,709,cs)
);
},
{
closed = 1;
nodes = (
(426,627,o),
(341,621,o),
(320,573,cs),
(262,441,o),
(62,231,o),
(18,102,cs),
(1,52,o),
(88,65,o),
(104,112,cs),
(134,199,o),
(334,419,o),
(404,577,cs)
);
}
);
width = 459;
}
);
unicode = 122;
},
{
glyphname = period;
lastChange = "2023-11-02 06:24:32 +0000";
layers = (
{
layerId = m01;
shapes = (
{
closed = 1;
nodes = (
(40,157,o),
(-20,-14,o),
(6,2,cs),
(14,6,o),
(33,3,o),
(54,1,cs),
(73,-1,o),
(93,-3,o),
(107,1,cs),
(128,8,o),
(189,178,o),
(165,171,cs),
(150,166,o),
(126,170,o),
(105,172,cs),
(87,174,o),
(71,175,o),
(62,170,cs)
);
}
);
width = 600;
}
);
unicode = 46;
},
{
glyphname = comma;
lastChange = "2023-11-02 06:24:32 +0000";
layers = (
{
layerId = m01;
shapes = (
{
closed = 1;
nodes = (
(44,165,o),
(-17,-4,o),
(5,-4,cs),
(24,-4,o),
(38,-11,o),
(47,-23,cs),
(60,-41,o),
(62,-70,o),
(55,-95,cs),
(41,-154,o),
(123,-78,o),
(136,-23,cs),
(144,11,o),
(144,53,o),
(134,88,cs),
(123,131,o),
(99,166,o),
(64,165,cs)
);
}
);
width = 600;
}
);
unicode = 44;
},
{
glyphname = semicolon;
lastChange = "2023-11-01 23:54:07 +0000";
layers = (
{
layerId = m01;
shapes = (
{
closed = 1;
nodes = (
(253.001,469.304,o),
(193.034,298.489,o),
(220.056,314.003,cs),
(227,318,o),
(244,316,o),
(264,313,cs),
(284,311,o),
(306,309,o),
(321.583,313.433,cs),
(342.362,319.64,o),
(403.828,489.908,o),
(379.252,482.567,cs),
(364,478,o),
(341,482,o),
(319,484,cs),
(301,486,o),
(285,488,o),
(275.109,481.997,cs)
);
},
{
closed = 1;
nodes = (
(265.058,165.725,o),
(204.392,-3.725,o),
(224.998,-3.725,cs),
(245,-4,o),
(259,-12,o),
(268,-24,cs),
(281,-42,o),
(282,-71,o),
(276.449,-95.928,cs),
(262.854,-153.223,o),
(344.722,-76.137,o),
(357.551,-22.072,cs),
(367,17,o),
(364,65,o),
(351,102,cs),
(338,139,o),
(316,166,o),
(285.002,165.725,cs)
);
}
);
width = 600;
}
);
unicode = 59;
},
{
glyphname = hyphen;
lastChange = "2023-11-02 06:24:32 +0000";
layers = (
{
layerId = m01;
shapes = (
{
closed = 1;
nodes = (
(335,235,o),
(380,409,o),
(352,384,cs),
(331,365,o),
(263,377,o),
(195,383,cs),
(137,389,o),
(78,389,o),
(49,361,cs),
(25,339,o),
(-19,165,o),
(9,193,cs),
(35,218,o),
(100,212,o),
(164,206,cs),
(226,200,o),
(288,193,o),
(312,214,cs)
);
}
